<?xml version="1.0" encoding="UTF-8" standalone="no"?>
<!DOCTYPE svg PUBLIC "-//W3C//DTD SVG 1.1//EN" "http://www.w3.org/Graphics/SVG/1.1/DTD/svg11.dtd">
<svg width="100%" height="100%" viewBox="0 0 1024 1024" version="1.1" xmlns="http://www.w3.org/2000/svg" xmlns:xlink="http://www.w3.org/1999/xlink" xml:space="preserve" xmlns:serif="http://www.serif.com/" style="fill-rule:evenodd;clip-rule:evenodd;stroke-linejoin:round;stroke-miterlimit:2;">
    <path d="M768.783,270.968C743.543,246.993 733.096,210.162 745.117,175.946C756.241,144.281 783.779,122.904 815.316,117.577L797.417,168.525L829.12,205.457L835.471,207.689L883.307,198.699L901.206,147.751C922.482,171.633 930.599,205.536 919.474,237.2C907.453,271.417 876.266,293.621 841.577,296.542L783.587,461.609L710.792,436.035L768.783,270.968ZM162.034,304.114L99.227,235.305L93.778,142.977L149.266,120.226L210.202,189.802L213.781,282.896L274.718,431.511L222.971,452.729L162.034,304.114Z" style="fill:rgb(116,128,152);"/>
    <path d="M562,548.025L562,553.921C562,574.894 544.973,591.921 524,591.921L500,591.921C479.027,591.921 462,574.894 462,553.921L462,548.025L112,548.025L112,825.525C112,870.174 146.236,906.423 188.406,906.423L835.594,906.423C877.764,906.423 912,870.174 912,825.525L912,548.025L562,548.025ZM841.403,853.115C841.403,847.014 836.45,842.061 830.35,842.061L193.65,842.061C187.55,842.061 182.597,847.014 182.597,853.115C182.597,859.215 187.55,864.168 193.65,864.168L830.35,864.168C836.45,864.168 841.403,859.215 841.403,853.115ZM616.153,800.6L616.153,792.874C616.153,784.446 611.939,778.768 600.994,778.768L587.825,778.768C577.173,778.768 572.373,783.861 572.373,793.05L572.373,800.307C572.373,809.672 577.056,814.706 587.825,814.706L600.994,814.706C611.939,814.706 616.153,809.087 616.153,800.6ZM664.148,800.6L664.148,792.874C664.148,784.446 659.933,778.768 648.988,778.768L635.819,778.768C625.167,778.768 620.367,783.861 620.367,793.05L620.367,800.307C620.367,809.672 625.05,814.706 635.819,814.706L648.988,814.706C659.933,814.706 664.148,809.087 664.148,800.6ZM786.006,800.6L786.006,792.874C786.006,784.446 781.792,778.768 770.847,778.768L757.678,778.768C747.025,778.768 742.226,783.861 742.226,793.05L742.226,800.307C742.226,809.672 746.908,814.706 757.678,814.706L770.847,814.706C781.792,814.706 786.006,809.087 786.006,800.6ZM476.502,800.6L476.502,792.874C476.502,784.446 472.288,778.768 461.343,778.768L448.174,778.768C437.521,778.768 432.722,783.861 432.722,793.05L432.722,800.307C432.722,809.672 437.404,814.706 448.174,814.706L461.343,814.706C472.288,814.706 476.502,809.087 476.502,800.6ZM232.492,814.413L232.492,782.514L215.694,782.514L215.694,814.413L232.492,814.413ZM832.537,814.413L832.537,798.259L828.03,798.259C825.982,798.259 824.753,798.083 823.289,796.854C825.572,794.747 826.86,794.103 829.376,794.103L832.537,794.103L832.537,779.061L824.401,779.061C820.304,779.061 817.554,780.641 815.212,782.748L811.349,786.202L807.486,782.748C805.145,780.641 802.394,779.061 798.297,779.061L790.162,779.061L790.162,794.103L793.381,794.103C795.898,794.103 797.185,794.747 799.468,796.854C798.005,798.083 796.776,798.259 794.668,798.259L790.162,798.259L790.162,814.413L798.005,814.413C802.16,814.413 805.204,813.242 807.779,810.96L811.408,807.682L814.978,810.96C817.495,813.242 820.597,814.413 824.694,814.413L832.537,814.413ZM686.681,814.413L686.681,766.594L670.118,766.594L670.118,814.413L686.681,814.413ZM736.607,799.546L736.607,793.869C736.607,784.621 732.393,779.12 723.145,779.12L714.19,779.12C713.02,779.12 711.908,779.237 710.854,779.471L710.854,766.536L693.998,766.536L693.998,799.722C693.998,809.087 697.217,814.413 707.928,814.413L722.619,814.413C733.037,814.413 736.607,809.438 736.607,799.546ZM429.268,794.454L429.268,779.061L410.246,779.061L410.246,772.389L393.683,772.389L393.683,779.061L386.366,779.061L386.366,794.454L393.683,794.454L393.683,802.883C393.683,809.848 397.136,814.413 406.852,814.413L428.449,814.413L428.449,799.137L412.353,799.137C410.48,799.137 410.246,798.844 410.246,797.264L410.246,794.454L429.268,794.454ZM208.027,814.413L208.027,766.594L191.463,766.594L191.463,814.413L208.027,814.413ZM256.899,814.413L256.899,766.594L240.335,766.594L240.335,814.413L256.899,814.413ZM381.099,814.413L381.099,782.514L364.301,782.514L364.301,814.413L381.099,814.413ZM517.59,794.63L517.59,779.061L499.036,779.061C489.086,779.061 480.657,784.973 480.657,799.02L480.657,814.413L497.455,814.413L497.455,799.371C497.455,797.03 499.153,794.63 502.782,794.63L517.59,794.63ZM358.155,799.722L358.155,766.536L341.357,766.536L341.357,779.471C340.245,779.237 339.133,779.12 337.904,779.12L328.949,779.12C319.76,779.12 315.487,784.621 315.487,793.869L315.487,799.546C315.487,809.438 319.116,814.413 329.476,814.413L344.167,814.413C354.936,814.413 358.155,809.087 358.155,799.722ZM309.693,814.354L309.693,799.371L285.286,799.371C282.008,799.371 281.54,798.317 281.54,796.152L307.586,796.152L307.586,784.914L281.598,784.914C281.95,782.456 283.062,781.695 285.286,781.695L309.693,781.695L309.693,766.594L282.184,766.594C266.615,766.594 264.04,775.023 264.04,787.138L264.04,796.21C264.04,806.98 268.078,814.354 282.008,814.354L309.693,814.354ZM568.452,782.163L568.452,766.594L521.57,766.594L521.57,782.163L536.495,782.163L536.495,814.354L554.346,814.354L554.346,782.163L568.452,782.163ZM600.35,797.498C600.35,798.493 599.941,799.781 598.009,799.781L590.634,799.781C588.644,799.781 588.235,798.844 588.235,797.498L588.235,795.976C588.235,794.923 588.82,793.752 590.634,793.752L598.009,793.752C599.707,793.752 600.35,794.864 600.35,795.976L600.35,797.498ZM648.345,797.498C648.345,798.493 647.935,799.781 646.003,799.781L638.629,799.781C636.639,799.781 636.229,798.844 636.229,797.498L636.229,795.976C636.229,794.923 636.814,793.752 638.629,793.752L646.003,793.752C647.701,793.752 648.345,794.864 648.345,795.976L648.345,797.498ZM770.203,797.498C770.203,798.493 769.793,799.781 767.862,799.781L760.487,799.781C758.497,799.781 758.088,798.844 758.088,797.498L758.088,795.976C758.088,794.923 758.673,793.752 760.487,793.752L767.862,793.752C769.559,793.752 770.203,794.864 770.203,795.976L770.203,797.498ZM460.699,797.498C460.699,798.493 460.289,799.781 458.358,799.781L450.983,799.781C448.993,799.781 448.583,798.844 448.583,797.498L448.583,795.976C448.583,794.923 449.169,793.752 450.983,793.752L458.358,793.752C460.055,793.752 460.699,794.864 460.699,795.976L460.699,797.498ZM719.751,797.147C719.751,798.317 719.282,798.903 717.878,798.903L712.493,798.903C711.322,798.903 710.854,798.2 710.854,797.322L710.854,796.035C710.854,794.981 711.732,794.63 712.493,794.63L717.878,794.63C719.282,794.63 719.751,795.332 719.751,796.21L719.751,797.147ZM341.357,797.322C341.357,798.2 340.947,798.903 339.835,798.903L334.275,798.903C332.753,798.903 332.344,797.908 332.344,797.147L332.344,796.444C332.344,795.332 332.87,794.63 334.275,794.63L339.835,794.63C340.655,794.63 341.357,795.157 341.357,796.035L341.357,797.322ZM381.099,779.822L381.099,766.594L364.301,766.594L364.301,779.822L381.099,779.822ZM232.492,779.822L232.492,766.594L215.694,766.594L215.694,779.822L232.492,779.822ZM577,643.953C577,635.674 570.279,628.953 562,628.953C553.721,628.953 547,635.674 547,643.953L547,648.203C547,656.482 553.721,663.203 562,663.203C570.279,663.203 577,656.482 577,648.203L577,643.953ZM477,643.953C477,635.674 470.279,628.953 462,628.953C453.721,628.953 447,635.674 447,643.953L447,648.203C447,656.482 453.721,663.203 462,663.203C470.279,663.203 477,656.482 477,648.203L477,643.953ZM526.961,643.953C526.961,635.674 520.24,628.953 511.961,628.953C503.683,628.953 496.961,635.674 496.961,643.953L496.961,648.203C496.961,656.482 503.683,663.203 511.961,663.203C520.24,663.203 526.961,656.482 526.961,648.203L526.961,643.953ZM462,494.611L462,488.715C462,467.742 479.027,450.715 500,450.715L524,450.715C544.973,450.715 562,467.742 562,488.715L562,494.611L935.522,494.611L935.522,447.998C935.522,403.349 899.273,367.099 854.624,367.099L169.376,367.099C124.727,367.099 88.478,403.349 88.478,447.998L88.478,494.611L462,494.611ZM321.363,337.22L321.363,292.219C321.363,252.388 353.701,220.05 393.532,220.05L630.468,220.05C670.299,220.05 702.637,252.388 702.637,292.219L702.637,337.22L633.637,337.22L633.637,292.219C633.637,290.47 632.217,289.05 630.468,289.05C630.468,289.05 393.532,289.05 393.532,289.05C391.783,289.05 390.363,290.47 390.363,292.219L390.363,337.22L321.363,337.22Z" style="fill:rgb(231,174,44);"/>
</svg>
